<svg viewBox="120 165 210 200" fill="none" xmlns="http://www.w3.org/2000/svg">
    <!-- Ãcone central sem fundo e com viewBox ajustado para preenchimento -->
    <g>
        <path fill="#0F2159" d="M327.07,322.964C325.501,335.689 321.119,347.408 310.872,355.347C305.987,359.131 299.115,361.263 292.857,362.173C279.837,364.067 266.947,363.083 254.292,358.253C243.54,354.15 234.044,348.233 226.711,339.808C221.343,333.64 217.955,325.7 213.988,318.386C212.368,315.399 211.55,311.978 210.004,308.183C209.396,306.792 209.149,305.972 208.903,305.152C208.807,301.411 208.657,297.67 208.632,293.929C208.614,291.308 208.513,288.646 208.902,286.071C209.489,282.185 211.524,279.799 215.971,280.075C220.515,280.357 220.433,283.834 220.992,286.837C221.75,290.905 222.162,295.04 222.981,299.094C224.936,308.76 228.337,317.954 234.535,325.659C242.562,335.64 252.418,342.952 266.254,343.112C262.24,340.869 258.011,338.936 254.26,336.316C247.414,331.536 241.343,326.415 239.322,317.27C237.107,307.242 238.477,297.79 241.095,288.349C242.531,283.172 245.219,278.355 247.078,273.279C250.637,263.564 249.999,254.274 244.008,245.525C239.743,239.296 234.109,236.759 226.682,238.316C224.731,238.725 222.778,239.127 220.817,239.48C210.708,241.297 200.287,235.232 197.427,225.451C196.94,223.784 197.983,221.307 199.02,219.639C200.573,217.139 202.842,215.096 204.637,212.731C209.252,206.651 213.803,200.614 213.19,192.225C212.602,184.182 217.914,178.91 223.584,174.841C231.367,169.257 240.091,163.969 250.157,166.491C258.076,168.475 265.586,172.262 273.087,175.669C276.641,177.283 279.766,179.855 283.056,182.037C289.391,186.237 291.578,192.553 289.634,199.377C287.677,206.249 284.519,212.765 278.802,217.828C271.951,223.894 260.503,218.874 256.768,213.844C255.624,212.303 254.404,210.82 252.453,208.336C252.914,214.857 256.59,218.054 260.384,220.468C270.491,226.901 283.029,223.003 288.779,212.11C290.727,208.42 293.227,208.249 295.482,211.753C300.197,219.078 305.723,226.047 309.302,233.897C314.331,244.924 318.285,256.496 321.939,268.074C324.311,275.587 325.328,283.528 326.982,292.178C327.031,303.041 327.05,313.003 327.07,322.964z"/>
        <path fill="#0F2159" d="M208.621,304.954C209.149,305.972 209.396,306.792 209.798,307.9C209.505,314.629 210.05,321.337 208.405,327.456C204.787,340.915 197.251,351.606 184.134,358.022C170.32,364.778 156.573,364.625 142.633,359.196C132.168,355.12 125.441,346.902 122.607,336.562C120.696,329.593 121.263,321.826 121.432,314.433C121.668,304.165 126.687,295.175 129.803,285.646C133.341,274.824 134.335,263.845 127.968,252.959C124.498,247.023 122.658,239.859 124.801,231.799C127.397,233.178 129.624,234.943 132.129,235.532C134.86,236.174 138.04,236.373 140.673,235.588C143.873,234.634 146.867,232.681 149.661,230.744C153.711,227.936 157.424,230.805 161.28,230.977C165.342,231.158 169.499,232.227 173.43,231.652C180.213,230.66 182.606,231.926 183.927,238.846C185.069,244.835 183.199,249.695 179.538,254.56C175.961,259.314 173.81,264.957 175.476,271.286C178.722,283.614 181.694,296.018 185.184,308.275C188.143,318.668 186.926,328.54 180.768,337.048C177.151,342.045 170.999,344.583 164.443,344.919C162.817,345.003 161.189,345.073 158.128,345.217C174.253,348.071 185.141,343.557 194.466,328.999C198.906,322.067 200.792,314.637 201.192,306.548C201.281,304.741 203.073,303.018 204.082,301.256C205.501,302.423 206.92,303.59 208.621,304.954z"/>
    </g>
</svg>

